<svg width="667" height="683" viewBox="0 0 667 683" fill="none" xmlns="http://www.w3.org/2000/svg">
<g opacity="0.5">
<path d="M368.667 545.833L397.333 510L368.667 474.167M503.333 670.833L421.7 591.7M311.333 474.167L282.667 510L311.333 545.833M454.667 510C454.667 573.329 403.329 624.667 340 624.667C276.671 624.667 225.333 573.329 225.333 510C225.333 446.671 276.671 395.333 340 395.333C403.329 395.333 454.667 446.671 454.667 510Z" stroke="#3D508F" stroke-width="24" stroke-linecap="round" stroke-linejoin="round"/>
<path d="M150 533.333V530.35C149.997 501.497 149.994 475.04 152.887 453.52C156.073 429.82 163.57 404.773 184.171 384.17C204.773 363.57 229.821 356.073 253.52 352.887C275.04 349.993 301.497 349.997 330.35 350H336.317C365.17 349.997 391.627 349.993 413.147 352.887C436.847 356.073 461.893 363.57 482.497 384.17C503.097 404.773 510.593 429.82 513.78 453.52C516.63 474.723 516.67 500.717 516.667 529.073C602.42 510.737 666.667 435.33 666.667 345.097C666.667 262.704 613.1 192.675 538.503 167.166C527.903 73.1237 447.197 0 349.207 0C244.009 0 158.73 84.2757 158.73 188.235C158.73 211.229 162.902 233.26 170.539 253.629C161.583 251.891 152.328 250.98 142.857 250.98C63.9593 250.98 0 314.187 0 392.157C0 470.127 63.9593 533.333 142.857 533.333H150Z" fill="#1C274C"/>
</g>
</svg>
