<svg width="680" height="520" viewBox="0 0 680 520" xmlns="http://www.w3.org/2000/svg" font-family="ui-sans-serif, system-ui, sans-serif">
<defs>
<marker id="arrow" viewBox="0 0 10 10" refX="8" refY="5" markerWidth="6" markerHeight="6" orient="auto-start-reverse">
<path d="M2 1L8 5L2 9" fill="none" stroke="#888780" stroke-width="1.5" stroke-linecap="round" stroke-linejoin="round"/>
</marker>
</defs>

<rect x="230" y="40" width="220" height="44" rx="4" fill="#F1EFE8" stroke="#5F5E5A" stroke-width="0.5"/>
<text font-size="14" font-weight="500" x="340" y="62" text-anchor="middle" dominant-baseline="central" fill="#2C2C2A">Request arrives at :8080</text>

<rect x="230" y="112" width="220" height="56" rx="4" fill="#EEEDFE" stroke="#534AB7" stroke-width="0.5"/>
<text font-size="14" font-weight="500" x="340" y="132" text-anchor="middle" dominant-baseline="central" fill="#26215C">Body buffered</text>
<text font-size="12" x="340" y="152" text-anchor="middle" dominant-baseline="central" fill="#534AB7">req headers + body collected</text>

<rect x="230" y="196" width="220" height="44" rx="4" fill="#E1F5EE" stroke="#0F6E56" stroke-width="0.5"/>
<text font-size="14" font-weight="500" x="340" y="218" text-anchor="middle" dominant-baseline="central" fill="#04342C">Forwarded to app</text>

<rect x="230" y="268" width="220" height="56" rx="4" fill="#EEEDFE" stroke="#534AB7" stroke-width="0.5"/>
<text font-size="14" font-weight="500" x="340" y="288" text-anchor="middle" dominant-baseline="central" fill="#26215C">Response captured</text>
<text font-size="12" x="340" y="308" text-anchor="middle" dominant-baseline="central" fill="#534AB7">status · headers · body</text>

<rect x="230" y="352" width="220" height="56" rx="4" fill="#EEEDFE" stroke="#534AB7" stroke-width="0.5"/>
<text font-size="14" font-weight="500" x="340" y="372" text-anchor="middle" dominant-baseline="central" fill="#26215C">Stored + broadcast</text>
<text font-size="12" x="340" y="392" text-anchor="middle" dominant-baseline="central" fill="#534AB7">buffer · SSE clients notified</text>

<rect x="230" y="436" width="220" height="44" rx="4" fill="#E1F5EE" stroke="#0F6E56" stroke-width="0.5"/>
<text font-size="14" font-weight="500" x="340" y="458" text-anchor="middle" dominant-baseline="central" fill="#04342C">UI updates live</text>

<line x1="340" y1="86" x2="340" y2="110" stroke="#888780" stroke-width="1.5" marker-end="url(#arrow)"/>
<line x1="340" y1="170" x2="340" y2="194" stroke="#888780" stroke-width="1.5" marker-end="url(#arrow)"/>
<line x1="340" y1="242" x2="340" y2="266" stroke="#888780" stroke-width="1.5" marker-end="url(#arrow)"/>
<line x1="340" y1="326" x2="340" y2="350" stroke="#888780" stroke-width="1.5" marker-end="url(#arrow)"/>
<line x1="340" y1="410" x2="340" y2="434" stroke="#888780" stroke-width="1.5" marker-end="url(#arrow)"/>
</svg>
