<svg width="680" height="370" viewBox="0 0 680 370" xmlns="http://www.w3.org/2000/svg" font-family="ui-sans-serif, system-ui, sans-serif">
<defs>
<marker id="arrow" viewBox="0 0 10 10" refX="8" refY="5" markerWidth="6" markerHeight="6" orient="auto-start-reverse">
<path d="M2 1L8 5L2 9" fill="none" stroke="#888780" stroke-width="1.5" stroke-linecap="round" stroke-linejoin="round"/>
</marker>
<marker id="arrow2" viewBox="0 0 10 10" refX="8" refY="5" markerWidth="6" markerHeight="6" orient="auto-start-reverse">
<path d="M2 1L8 5L2 9" fill="none" stroke="#7F77DD" stroke-width="1.5" stroke-linecap="round" stroke-linejoin="round"/>
</marker>
</defs>

<rect x="25" y="82" width="112" height="44" rx="4" fill="#F1EFE8" stroke="#5F5E5A" stroke-width="0.5"/>
<text font-size="14" font-weight="500" x="81" y="104" text-anchor="middle" dominant-baseline="central" fill="#2C2C2A">Internet</text>

<rect x="160" y="82" width="140" height="44" rx="4" fill="#FAECE7" stroke="#993C1D" stroke-width="0.5"/>
<text font-size="14" font-weight="500" x="230" y="104" text-anchor="middle" dominant-baseline="central" fill="#4A1B0C">cloudflared</text>
<text font-size="12" x="230" y="140" text-anchor="middle" fill="#993C1D">tunnel daemon</text>

<rect x="323" y="76" width="156" height="56" rx="4" fill="#EEEDFE" stroke="#534AB7" stroke-width="0.5"/>
<text font-size="14" font-weight="500" x="401" y="96" text-anchor="middle" dominant-baseline="central" fill="#26215C">Proxy server</text>
<text font-size="12" x="401" y="117" text-anchor="middle" dominant-baseline="central" fill="#534AB7">port :8080</text>

<rect x="502" y="82" width="118" height="44" rx="4" fill="#E1F5EE" stroke="#0F6E56" stroke-width="0.5"/>
<text font-size="14" font-weight="500" x="561" y="104" text-anchor="middle" dominant-baseline="central" fill="#04342C">Your app</text>
<text font-size="12" x="561" y="140" text-anchor="middle" fill="#0F6E56">port :3000</text>

<line x1="139" y1="104" x2="158" y2="104" stroke="#888780" stroke-width="1.5" marker-end="url(#arrow)"/>
<line x1="302" y1="104" x2="321" y2="104" stroke="#888780" stroke-width="1.5" marker-end="url(#arrow)"/>
<line x1="481" y1="104" x2="500" y2="104" stroke="#888780" stroke-width="1.5" marker-end="url(#arrow)"/>

<rect x="323" y="195" width="156" height="56" rx="4" fill="#EEEDFE" stroke="#534AB7" stroke-width="0.5"/>
<text font-size="14" font-weight="500" x="401" y="215" text-anchor="middle" dominant-baseline="central" fill="#26215C">SSE server</text>
<text font-size="12" x="401" y="236" text-anchor="middle" dominant-baseline="central" fill="#534AB7">port :4040</text>

<rect x="303" y="290" width="196" height="56" rx="4" fill="#EEEDFE" stroke="#534AB7" stroke-width="0.5"/>
<text font-size="14" font-weight="500" x="401" y="310" text-anchor="middle" dominant-baseline="central" fill="#26215C">Inspector UI</text>
<text font-size="12" x="401" y="330" text-anchor="middle" dominant-baseline="central" fill="#534AB7">/inspector route</text>

<line x1="401" y1="134" x2="401" y2="193" stroke="#7F77DD" stroke-width="1.5" marker-end="url(#arrow2)" stroke-dasharray="4 3"/>
<line x1="401" y1="253" x2="401" y2="288" stroke="#7F77DD" stroke-width="1.5" marker-end="url(#arrow2)" stroke-dasharray="4 3"/>

<text font-size="11" x="415" y="170" fill="#534AB7">SSE broadcast</text>
</svg>
